%FSTAX23Y23*%
%MOIN*%
%SFA1B1*%

%IPPOS*%
%ADD69O,0.167842X0.067842*%
%ADD70R,0.167842X0.067842*%
%ADD72R,0.067055X0.067055*%
%ADD73C,0.067055*%
%ADD74R,0.067055X0.067055*%
%ADD75C,0.031622*%
%ADD76C,0.068000*%
%ADD77C,0.027685*%
%LNpcb_sherpa_mk_ii-1*%
%LPD*%
G54D69*
X0168Y0664D03*
G54D70*
X0168Y0644D03*
G54D72*
X03495Y07575D03*
X0271Y06085D03*
X01895Y07795D03*
X02695D03*
X03495D03*
X03669Y06077D03*
G54D73*
X03495Y07675D03*
X03595Y07575D03*
Y07675D03*
X03695Y07575D03*
Y07675D03*
X0261Y06085D03*
X0251D03*
X0241D03*
X0231D03*
X0221D03*
X0271Y05985D03*
X0261D03*
X0251D03*
X0241D03*
X0231D03*
X0221D03*
X01995Y07795D03*
X02095D03*
X02195D03*
X02295D03*
X02395D03*
X01895Y07895D03*
X01995D03*
X02095D03*
X02195D03*
X02295D03*
X02395D03*
X02795Y07795D03*
X02895D03*
X02995D03*
X03095D03*
X03195D03*
X02695Y07895D03*
X02795D03*
X02895D03*
X02995D03*
X03095D03*
X03195D03*
X03595Y07795D03*
X03695D03*
X03795D03*
X03895D03*
X03995D03*
X03495Y07895D03*
X03595D03*
X03695D03*
X03795D03*
X03895D03*
X03995D03*
X03769Y06077D03*
X03869D03*
X042Y0732D03*
Y0722D03*
Y0712D03*
Y0702D03*
Y0692D03*
X043Y0742D03*
Y0732D03*
Y0722D03*
Y0712D03*
Y0702D03*
Y0692D03*
X042Y0652D03*
Y0642D03*
Y0632D03*
Y0622D03*
Y0612D03*
X043Y0662D03*
Y0652D03*
Y0642D03*
Y0632D03*
Y0622D03*
Y0612D03*
G54D74*
X042Y0742D03*
Y0662D03*
G54D75*
X03475Y07125D03*
X03545Y0716D03*
X02165Y07425D03*
X02155Y06505D03*
Y06625D03*
X0315Y07125D03*
X03285Y0704D03*
X03375Y0678D03*
X0326D03*
X03505Y06755D03*
X0252Y06805D03*
Y06845D03*
Y0717D03*
X0257Y06845D03*
X0252Y07055D03*
X0271Y06885D03*
Y0685D03*
X0265Y0661D03*
Y06555D03*
X02759Y0661D03*
X0276Y06555D03*
X0279Y06535D03*
X0276Y06507D03*
X0265D03*
X03505Y06705D03*
X03545Y06685D03*
X03685Y06785D03*
Y06845D03*
X03505D03*
X03455Y06615D03*
X0252Y06445D03*
X02555Y0641D03*
X02345Y06445D03*
Y06335D03*
X0229Y06615D03*
Y06735D03*
Y067D03*
Y06775D03*
Y06655D03*
X03925Y06835D03*
Y06795D03*
X03815Y06835D03*
Y06795D03*
X0326Y06865D03*
X0337Y0668D03*
X0326Y06675D03*
X03475Y0655D03*
X0351D03*
X03475Y0644D03*
X0351D03*
X02875Y066D03*
X03415Y07435D03*
X03785D03*
X03365Y0718D03*
Y07215D03*
X0348Y0724D03*
Y07205D03*
Y0717D03*
X0315Y0732D03*
X03095Y0737D03*
X0319Y07245D03*
X03095Y0726D03*
X02275Y0721D03*
Y07295D03*
X0243Y07485D03*
X0238Y07095D03*
X03785Y0731D03*
X0227Y07095D03*
X02545Y07485D03*
X02395D03*
X02275Y07245D03*
X02165Y0721D03*
X02165Y07295D03*
X02485Y064D03*
X02435D03*
X02395Y06805D03*
X0238Y06915D03*
X0296Y06515D03*
X0342Y06635D03*
X02805Y06425D03*
X02925D03*
X03425Y0704D03*
X0238Y06445D03*
X02555D03*
X0246Y06425D03*
X02485Y06445D03*
X02345Y06915D03*
X02325Y06805D03*
X0227Y07165D03*
Y0713D03*
X0245Y06955D03*
X02305D03*
X02597D03*
X0228Y07345D03*
X02165Y0733D03*
X0213Y07395D03*
X02165Y07365D03*
X03545Y0644D03*
X0326Y069D03*
X03415Y074D03*
X0229Y06515D03*
X0241Y0643D03*
X03365Y0725D03*
X0224Y07245D03*
X02875Y06565D03*
X03415Y07365D03*
X0313Y0735D03*
X0307Y07395D03*
X0358Y0644D03*
X03615D03*
X0365D03*
X0273Y06675D03*
X0284Y07265D03*
X02205Y0764D03*
X03375Y06865D03*
X03145Y07435D03*
X0337Y07495D03*
X03335D03*
X0337Y07605D03*
X03335D03*
X033Y07525D03*
X03265D03*
X0323Y07605D03*
X0319Y07495D03*
X0323D03*
X031Y07635D03*
X03071Y07675D03*
G54D76*
X018Y0644D03*
Y0664D03*
G54D77*
X02375Y07389D03*
X02418D03*
X02461D03*
X02504D03*
X02375Y07346D03*
X02418D03*
X02461D03*
X02504D03*
X02375Y07303D03*
X02418D03*
X02461D03*
X02504D03*
X02375Y0726D03*
X02418D03*
X02461D03*
X02504D03*
X03253Y07353D03*
Y07396D03*
X03296Y07353D03*
Y07396D03*
M02*