%FSTAX23Y23*%
%MOIN*%
%SFA1B1*%

%IPPOS*%
%ADD50R,0.027685X0.031622*%
%ADD51R,0.031622X0.027685*%
%ADD52O,0.019811X0.072960*%
%ADD53O,0.072960X0.019811*%
%ADD54R,0.224535X0.224535*%
%ADD55R,0.017842X0.039496*%
%ADD56R,0.039496X0.017842*%
%ADD57R,0.169417X0.169417*%
%ADD58O,0.017842X0.039496*%
%ADD59O,0.039496X0.017842*%
%ADD60R,0.051307X0.063118*%
%ADD61R,0.063118X0.055244*%
%ADD62R,0.019811X0.039496*%
%ADD63R,0.039496X0.019811*%
%ADD64R,0.114299X0.114299*%
%ADD65R,0.037921X0.058394*%
%ADD66R,0.058394X0.045008*%
%ADD67R,0.031622X0.051307*%
%ADD68R,0.031622X0.039496*%
%ADD69O,0.167842X0.067842*%
%ADD70R,0.167842X0.067842*%
%ADD71R,0.021779X0.035559*%
%ADD72R,0.067055X0.067055*%
%ADD73C,0.067055*%
%ADD74R,0.067055X0.067055*%
%ADD75C,0.031622*%
%ADD76C,0.068000*%
%ADD77C,0.027685*%
%LNpcb_sherpa_mk_ii-1*%
%LPD*%
G36*
X03781Y06282D02*
X03782Y06282D01*
X03782Y06282*
X03783Y06282*
X03783Y06281*
X03784Y06281*
X03807Y06257*
X03808Y06257*
X03808Y06257*
X03808Y06256*
X03808Y06256*
X03808Y06255*
X03809Y06255*
Y06168*
X03808Y06167*
X03808Y06167*
X03808Y06166*
X03808Y06166*
X03808Y06165*
X03807Y06165*
X03784Y06141*
X03783Y06141*
X03783Y06141*
X03782Y06141*
X03782Y0614*
X03781Y0614*
X03781Y0614*
X03757*
X03757Y0614*
X03756Y0614*
X03756Y06141*
X03755Y06141*
X03755Y06141*
X03754Y06141*
X03731Y06165*
X0373Y06165*
X0373Y06166*
X0373Y06166*
X0373Y06167*
X0373Y06167*
X0373Y06168*
Y06255*
X0373Y06255*
X0373Y06256*
X0373Y06256*
X0373Y06257*
X0373Y06257*
X03731Y06257*
X03754Y06281*
X03755Y06281*
X03755Y06282*
X03756Y06282*
X03756Y06282*
X03757Y06282*
X03757Y06282*
X03781*
X03781Y06282*
G37*
G54D50*
X0351Y07085D03*
Y07124D03*
X03545D03*
Y07085D03*
X02975Y07595D03*
Y07634D03*
X02765Y07595D03*
Y07634D03*
X03495Y07D03*
Y07039D03*
X02835Y07595D03*
Y07634D03*
X0273Y07595D03*
Y07634D03*
X0245Y06919D03*
Y0688D03*
X028Y07595D03*
Y07634D03*
X0245Y0699D03*
Y07029D03*
X0287Y07595D03*
Y07634D03*
X0238Y06879D03*
Y0684D03*
X02255Y06654D03*
Y06615D03*
Y06774D03*
Y06735D03*
X0252Y0637D03*
Y06409D03*
X02345Y0637D03*
Y06409D03*
X02905Y07595D03*
Y07634D03*
X0294Y07595D03*
Y07634D03*
X0252Y0709D03*
Y07129D03*
X02765Y06464D03*
Y06425D03*
X02345Y0684D03*
Y06879D03*
X03545Y06475D03*
Y06514D03*
X0358Y06475D03*
Y06514D03*
X03615Y06475D03*
Y06514D03*
X0315Y07245D03*
Y07284D03*
X03095Y07295D03*
Y07334D03*
X0323Y07569D03*
Y0753D03*
X0365Y06475D03*
Y06514D03*
X03545Y07039D03*
Y07D03*
X0346D03*
Y07039D03*
X03475Y06475D03*
Y06514D03*
X0351Y06475D03*
Y06514D03*
X03335Y07569D03*
Y0753D03*
X0337Y07569D03*
Y0753D03*
X03785Y07355D03*
Y07394D03*
X03654Y06202D03*
Y06242D03*
G54D51*
X022Y07425D03*
X02239D03*
X04Y07385D03*
X0404D03*
X04Y0735D03*
X0404D03*
X02559Y06955D03*
X0252D03*
X022Y07365D03*
X02239D03*
X022Y0733D03*
X02239D03*
X02344Y07165D03*
X02305D03*
Y0713D03*
X02344D03*
X0234Y06955D03*
X02379D03*
X02674Y0685D03*
X02635D03*
X02724Y0661D03*
X02685D03*
X02674Y06885D03*
X02635D03*
X02724Y06555D03*
X02685D03*
X02724Y0651D03*
X02685D03*
X02479Y06365D03*
X0244D03*
X022Y0721D03*
X02239D03*
X022Y07295D03*
X02239D03*
X02509Y07485D03*
X0247D03*
X02305Y07095D03*
X02344D03*
X03334Y069D03*
X03295D03*
X04Y0728D03*
X0404D03*
X02655Y06675D03*
X02694D03*
X04Y07245D03*
X0404D03*
X04Y0721D03*
X0404D03*
X04Y07315D03*
X0404D03*
X02844Y065D03*
X02805D03*
X04Y07175D03*
X0404D03*
X02805Y06465D03*
X02844D03*
X0292Y0655D03*
X02959D03*
X04Y0714D03*
X0404D03*
X04Y06585D03*
X04039D03*
X02885Y06465D03*
X02924D03*
X04Y0655D03*
X04039D03*
X04Y06515D03*
X04039D03*
X04Y0648D03*
X04039D03*
X04Y06445D03*
X04039D03*
X04Y0641D03*
X04039D03*
X04Y06375D03*
X04039D03*
X04Y0634D03*
X04039D03*
X03889Y06835D03*
X0385D03*
X03889Y06795D03*
X0385D03*
X03295Y0678D03*
X03334D03*
X03295Y06675D03*
X03334D03*
X03295Y06865D03*
X03334D03*
X028Y06567D03*
X02839D03*
Y06602D03*
X028D03*
X03405Y0724D03*
X03444D03*
X03405Y07205D03*
X03444D03*
X03405Y0717D03*
X03444D03*
X03719Y0724D03*
X0368D03*
G54D52*
X03486Y06936D03*
X03506D03*
X03526D03*
X03545D03*
X03565D03*
X03585D03*
X03604D03*
X03624D03*
X03644D03*
X03663D03*
X03683D03*
X03703D03*
Y06613D03*
X03683D03*
X03663D03*
X03644D03*
X03624D03*
X03604D03*
X03585D03*
X03565D03*
X03545D03*
X03526D03*
X03506D03*
X03486D03*
G54D53*
X03756Y06883D03*
Y06863D03*
Y06843D03*
Y06824D03*
Y06804D03*
Y06784D03*
Y06765D03*
Y06745D03*
Y06725D03*
Y06706D03*
Y06686D03*
Y06666D03*
X03433D03*
Y06686D03*
Y06706D03*
Y06725D03*
Y06745D03*
Y06765D03*
Y06784D03*
Y06804D03*
Y06824D03*
Y06843D03*
Y06863D03*
Y06883D03*
G54D54*
X0247Y06625D03*
G54D55*
X02361Y06762D03*
X02381D03*
X02401D03*
X0242D03*
X0244D03*
X0246D03*
X02479D03*
X02499D03*
X02519D03*
X02538D03*
X02558D03*
X02578D03*
Y06487D03*
X02558D03*
X02538D03*
X02519D03*
X02499D03*
X02479D03*
X0246D03*
X0244D03*
X0242D03*
X02401D03*
X02381D03*
X02361D03*
G54D56*
X02607Y06733D03*
Y06713D03*
Y06693D03*
Y06674D03*
Y06654D03*
Y06634D03*
Y06615D03*
Y06595D03*
Y06575D03*
Y06556D03*
Y06536D03*
Y06516D03*
X02332D03*
Y06536D03*
Y06556D03*
Y06575D03*
Y06595D03*
Y06615D03*
Y06634D03*
Y06654D03*
Y06674D03*
Y06693D03*
Y06713D03*
Y06733D03*
G54D57*
X0244Y07325D03*
G54D58*
X02528Y07206D03*
X02508D03*
X02489D03*
X02469D03*
X02449D03*
X0243D03*
X0241D03*
X0239D03*
X02371D03*
X02351D03*
Y07443D03*
X02371D03*
X0239D03*
X0241D03*
X0243D03*
X02449D03*
X02469D03*
X02489D03*
X02508D03*
X02528D03*
G54D59*
X02321Y07236D03*
Y07256D03*
Y07275D03*
Y07295D03*
Y07315D03*
Y07334D03*
Y07354D03*
Y07374D03*
Y07393D03*
Y07413D03*
X02558D03*
Y07393D03*
Y07374D03*
Y07354D03*
Y07334D03*
Y07315D03*
Y07295D03*
Y07275D03*
Y07256D03*
Y07236D03*
G54D60*
X03795Y05982D03*
X03854D03*
X03744D03*
X03685D03*
G54D61*
X03203Y07086D03*
X03286D03*
Y07153D03*
X03203D03*
G54D62*
X03235Y07296D03*
X03255D03*
X03275D03*
X03294D03*
X03314D03*
Y07453D03*
X03294D03*
X03275D03*
X03255D03*
X03235D03*
G54D63*
X03353Y07335D03*
Y07355D03*
Y07375D03*
Y07394D03*
Y07414D03*
X03196D03*
Y07394D03*
Y07375D03*
Y07355D03*
Y07335D03*
G54D64*
X03275Y07375D03*
G54D65*
X03646Y07467D03*
X036D03*
X03553D03*
Y07302D03*
X036D03*
X03646D03*
G54D66*
X03477Y07435D03*
Y07335D03*
X03722D03*
Y07435D03*
G54D67*
X03828Y06288D03*
X0371D03*
X03828Y06156D03*
X0371D03*
G54D68*
X03769Y06294D03*
Y0615D03*
G54D69*
X0168Y0664D03*
Y0654D03*
G54D70*
X0168Y0644D03*
G54D71*
X02129Y0659D03*
X02155D03*
X0218D03*
Y06539D03*
X02155D03*
X02129D03*
G54D72*
X03495Y07575D03*
X0271Y06085D03*
X01895Y07795D03*
X02695D03*
X03495D03*
X03669Y06077D03*
G54D73*
X03495Y07675D03*
X03595Y07575D03*
Y07675D03*
X03695Y07575D03*
Y07675D03*
X0261Y06085D03*
X0251D03*
X0241D03*
X0231D03*
X0221D03*
X0271Y05985D03*
X0261D03*
X0251D03*
X0241D03*
X0231D03*
X0221D03*
X01995Y07795D03*
X02095D03*
X02195D03*
X02295D03*
X02395D03*
X01895Y07895D03*
X01995D03*
X02095D03*
X02195D03*
X02295D03*
X02395D03*
X02795Y07795D03*
X02895D03*
X02995D03*
X03095D03*
X03195D03*
X02695Y07895D03*
X02795D03*
X02895D03*
X02995D03*
X03095D03*
X03195D03*
X03595Y07795D03*
X03695D03*
X03795D03*
X03895D03*
X03995D03*
X03495Y07895D03*
X03595D03*
X03695D03*
X03795D03*
X03895D03*
X03995D03*
X03769Y06077D03*
X03869D03*
X042Y0732D03*
Y0722D03*
Y0712D03*
Y0702D03*
Y0692D03*
X043Y0742D03*
Y0732D03*
Y0722D03*
Y0712D03*
Y0702D03*
Y0692D03*
X042Y0652D03*
Y0642D03*
Y0632D03*
Y0622D03*
Y0612D03*
X043Y0662D03*
Y0652D03*
Y0642D03*
Y0632D03*
Y0622D03*
Y0612D03*
G54D74*
X042Y0742D03*
Y0662D03*
G54D75*
X03475Y07125D03*
X03545Y0716D03*
X02165Y07425D03*
X02155Y06505D03*
Y06625D03*
X0315Y07125D03*
X03285Y0704D03*
X03375Y0678D03*
X0326D03*
X03505Y06755D03*
X0252Y06805D03*
Y06845D03*
Y0717D03*
X0257Y06845D03*
X0252Y07055D03*
X0271Y06885D03*
Y0685D03*
X0265Y0661D03*
Y06555D03*
X02759Y0661D03*
X0276Y06555D03*
X0279Y06535D03*
X0276Y06507D03*
X0265D03*
X03505Y06705D03*
X03545Y06685D03*
X03685Y06785D03*
Y06845D03*
X03505D03*
X03455Y06615D03*
X0252Y06445D03*
X02555Y0641D03*
X02345Y06445D03*
Y06335D03*
X0229Y06615D03*
Y06735D03*
Y067D03*
Y06775D03*
Y06655D03*
X03925Y06835D03*
Y06795D03*
X03815Y06835D03*
Y06795D03*
X0326Y06865D03*
X0337Y0668D03*
X0326Y06675D03*
X03475Y0655D03*
X0351D03*
X03475Y0644D03*
X0351D03*
X02875Y066D03*
X03415Y07435D03*
X03785D03*
X03365Y0718D03*
Y07215D03*
X0348Y0724D03*
Y07205D03*
Y0717D03*
X0315Y0732D03*
X03095Y0737D03*
X0319Y07245D03*
X03095Y0726D03*
X02275Y0721D03*
Y07295D03*
X0243Y07485D03*
X0238Y07095D03*
X03785Y0731D03*
X0227Y07095D03*
X02545Y07485D03*
X02395D03*
X02275Y07245D03*
X02165Y0721D03*
X02165Y07295D03*
X02485Y064D03*
X02435D03*
X02395Y06805D03*
X0238Y06915D03*
X0296Y06515D03*
X0342Y06635D03*
X02805Y06425D03*
X02925D03*
X03425Y0704D03*
X0238Y06445D03*
X02555D03*
X0246Y06425D03*
X02485Y06445D03*
X02345Y06915D03*
X02325Y06805D03*
X0227Y07165D03*
Y0713D03*
X0245Y06955D03*
X02305D03*
X02597D03*
X0228Y07345D03*
X02165Y0733D03*
X0213Y07395D03*
X02165Y07365D03*
X03545Y0644D03*
X0326Y069D03*
X03415Y074D03*
X0229Y06515D03*
X0241Y0643D03*
X03365Y0725D03*
X0224Y07245D03*
X02875Y06565D03*
X03415Y07365D03*
X0313Y0735D03*
X0307Y07395D03*
X0358Y0644D03*
X03615D03*
X0365D03*
X0273Y06675D03*
X0284Y07265D03*
X02205Y0764D03*
X03375Y06865D03*
X03145Y07435D03*
X0337Y07495D03*
X03335D03*
X0337Y07605D03*
X03335D03*
X033Y07525D03*
X03265D03*
X0323Y07605D03*
X0319Y07495D03*
X0323D03*
X031Y07635D03*
X03071Y07675D03*
G54D76*
X018Y0644D03*
Y0664D03*
G54D77*
X02375Y07389D03*
X02418D03*
X02461D03*
X02504D03*
X02375Y07346D03*
X02418D03*
X02461D03*
X02504D03*
X02375Y07303D03*
X02418D03*
X02461D03*
X02504D03*
X02375Y0726D03*
X02418D03*
X02461D03*
X02504D03*
X03253Y07353D03*
Y07396D03*
X03296Y07353D03*
Y07396D03*
M02*