%FSTAX23Y23*%
%MOIN*%
%SFA1B1*%

%IPPOS*%
%ADD11R,0.019685X0.023622*%
%ADD12R,0.023622X0.019685*%
%ADD13O,0.011811X0.064960*%
%ADD14O,0.064960X0.011811*%
%ADD15R,0.216535X0.216535*%
%ADD16R,0.009843X0.031496*%
%ADD17R,0.031496X0.009843*%
%ADD18R,0.161417X0.161417*%
%ADD19O,0.009843X0.031496*%
%ADD20O,0.031496X0.009843*%
%ADD21R,0.043307X0.055118*%
%ADD22R,0.055118X0.047244*%
%ADD23R,0.011811X0.031496*%
%ADD24R,0.031496X0.011811*%
%ADD25R,0.106299X0.106299*%
%ADD26R,0.029921X0.050394*%
%ADD27R,0.050394X0.037008*%
%ADD28R,0.023622X0.043307*%
%ADD29R,0.023622X0.031496*%
%ADD30O,0.159842X0.059842*%
%ADD31R,0.159842X0.059842*%
%ADD32R,0.013780X0.027559*%
%LNpcb_sherpa_mk_ii-1*%
%LPD*%
G36*
X03805Y06255D02*
Y06168D01*
X03781Y06144*
X03757*
X03734Y06168*
Y06255*
X03757Y06278*
X03781*
X03805Y06255*
G37*
G54D11*
X0351Y07085D03*
Y07124D03*
X03545D03*
Y07085D03*
X02975Y07595D03*
Y07634D03*
X02765Y07595D03*
Y07634D03*
X03495Y07D03*
Y07039D03*
X02835Y07595D03*
Y07634D03*
X0273Y07595D03*
Y07634D03*
X0245Y06919D03*
Y0688D03*
X028Y07595D03*
Y07634D03*
X0245Y0699D03*
Y07029D03*
X0287Y07595D03*
Y07634D03*
X0238Y06879D03*
Y0684D03*
X02255Y06654D03*
Y06615D03*
Y06774D03*
Y06735D03*
X0252Y0637D03*
Y06409D03*
X02345Y0637D03*
Y06409D03*
X02905Y07595D03*
Y07634D03*
X0294Y07595D03*
Y07634D03*
X0252Y0709D03*
Y07129D03*
X02765Y06464D03*
Y06425D03*
X02345Y0684D03*
Y06879D03*
X03545Y06475D03*
Y06514D03*
X0358Y06475D03*
Y06514D03*
X03615Y06475D03*
Y06514D03*
X0315Y07245D03*
Y07284D03*
X03095Y07295D03*
Y07334D03*
X0323Y07569D03*
Y0753D03*
X0365Y06475D03*
Y06514D03*
X03545Y07039D03*
Y07D03*
X0346D03*
Y07039D03*
X03475Y06475D03*
Y06514D03*
X0351Y06475D03*
Y06514D03*
X03335Y07569D03*
Y0753D03*
X0337Y07569D03*
Y0753D03*
X03785Y07355D03*
Y07394D03*
X03654Y06202D03*
Y06242D03*
G54D12*
X022Y07425D03*
X02239D03*
X04Y07385D03*
X0404D03*
X04Y0735D03*
X0404D03*
X02559Y06955D03*
X0252D03*
X022Y07365D03*
X02239D03*
X022Y0733D03*
X02239D03*
X02344Y07165D03*
X02305D03*
Y0713D03*
X02344D03*
X0234Y06955D03*
X02379D03*
X02674Y0685D03*
X02635D03*
X02724Y0661D03*
X02685D03*
X02674Y06885D03*
X02635D03*
X02724Y06555D03*
X02685D03*
X02724Y0651D03*
X02685D03*
X02479Y06365D03*
X0244D03*
X022Y0721D03*
X02239D03*
X022Y07295D03*
X02239D03*
X02509Y07485D03*
X0247D03*
X02305Y07095D03*
X02344D03*
X03334Y069D03*
X03295D03*
X04Y0728D03*
X0404D03*
X02655Y06675D03*
X02694D03*
X04Y07245D03*
X0404D03*
X04Y0721D03*
X0404D03*
X04Y07315D03*
X0404D03*
X02844Y065D03*
X02805D03*
X04Y07175D03*
X0404D03*
X02805Y06465D03*
X02844D03*
X0292Y0655D03*
X02959D03*
X04Y0714D03*
X0404D03*
X04Y06585D03*
X04039D03*
X02885Y06465D03*
X02924D03*
X04Y0655D03*
X04039D03*
X04Y06515D03*
X04039D03*
X04Y0648D03*
X04039D03*
X04Y06445D03*
X04039D03*
X04Y0641D03*
X04039D03*
X04Y06375D03*
X04039D03*
X04Y0634D03*
X04039D03*
X03889Y06835D03*
X0385D03*
X03889Y06795D03*
X0385D03*
X03295Y0678D03*
X03334D03*
X03295Y06675D03*
X03334D03*
X03295Y06865D03*
X03334D03*
X028Y06567D03*
X02839D03*
Y06602D03*
X028D03*
X03405Y0724D03*
X03444D03*
X03405Y07205D03*
X03444D03*
X03405Y0717D03*
X03444D03*
X03719Y0724D03*
X0368D03*
G54D13*
X03486Y06936D03*
X03506D03*
X03526D03*
X03545D03*
X03565D03*
X03585D03*
X03604D03*
X03624D03*
X03644D03*
X03663D03*
X03683D03*
X03703D03*
Y06613D03*
X03683D03*
X03663D03*
X03644D03*
X03624D03*
X03604D03*
X03585D03*
X03565D03*
X03545D03*
X03526D03*
X03506D03*
X03486D03*
G54D14*
X03756Y06883D03*
Y06863D03*
Y06843D03*
Y06824D03*
Y06804D03*
Y06784D03*
Y06765D03*
Y06745D03*
Y06725D03*
Y06706D03*
Y06686D03*
Y06666D03*
X03433D03*
Y06686D03*
Y06706D03*
Y06725D03*
Y06745D03*
Y06765D03*
Y06784D03*
Y06804D03*
Y06824D03*
Y06843D03*
Y06863D03*
Y06883D03*
G54D15*
X0247Y06625D03*
G54D16*
X02361Y06762D03*
X02381D03*
X02401D03*
X0242D03*
X0244D03*
X0246D03*
X02479D03*
X02499D03*
X02519D03*
X02538D03*
X02558D03*
X02578D03*
Y06487D03*
X02558D03*
X02538D03*
X02519D03*
X02499D03*
X02479D03*
X0246D03*
X0244D03*
X0242D03*
X02401D03*
X02381D03*
X02361D03*
G54D17*
X02607Y06733D03*
Y06713D03*
Y06693D03*
Y06674D03*
Y06654D03*
Y06634D03*
Y06615D03*
Y06595D03*
Y06575D03*
Y06556D03*
Y06536D03*
Y06516D03*
X02332D03*
Y06536D03*
Y06556D03*
Y06575D03*
Y06595D03*
Y06615D03*
Y06634D03*
Y06654D03*
Y06674D03*
Y06693D03*
Y06713D03*
Y06733D03*
G54D18*
X0244Y07325D03*
G54D19*
X02528Y07206D03*
X02508D03*
X02489D03*
X02469D03*
X02449D03*
X0243D03*
X0241D03*
X0239D03*
X02371D03*
X02351D03*
Y07443D03*
X02371D03*
X0239D03*
X0241D03*
X0243D03*
X02449D03*
X02469D03*
X02489D03*
X02508D03*
X02528D03*
G54D20*
X02321Y07236D03*
Y07256D03*
Y07275D03*
Y07295D03*
Y07315D03*
Y07334D03*
Y07354D03*
Y07374D03*
Y07393D03*
Y07413D03*
X02558D03*
Y07393D03*
Y07374D03*
Y07354D03*
Y07334D03*
Y07315D03*
Y07295D03*
Y07275D03*
Y07256D03*
Y07236D03*
G54D21*
X03795Y05982D03*
X03854D03*
X03744D03*
X03685D03*
G54D22*
X03203Y07086D03*
X03286D03*
Y07153D03*
X03203D03*
G54D23*
X03235Y07296D03*
X03255D03*
X03275D03*
X03294D03*
X03314D03*
Y07453D03*
X03294D03*
X03275D03*
X03255D03*
X03235D03*
G54D24*
X03353Y07335D03*
Y07355D03*
Y07375D03*
Y07394D03*
Y07414D03*
X03196D03*
Y07394D03*
Y07375D03*
Y07355D03*
Y07335D03*
G54D25*
X03275Y07375D03*
G54D26*
X03646Y07467D03*
X036D03*
X03553D03*
Y07302D03*
X036D03*
X03646D03*
G54D27*
X03477Y07435D03*
Y07335D03*
X03722D03*
Y07435D03*
G54D28*
X03828Y06288D03*
X0371D03*
X03828Y06156D03*
X0371D03*
G54D29*
X03769Y06294D03*
Y0615D03*
G54D30*
X0168Y0664D03*
Y0654D03*
G54D31*
X0168Y0644D03*
G54D32*
X02129Y0659D03*
X02155D03*
X0218D03*
Y06539D03*
X02155D03*
X02129D03*
M02*