%FSTAX23Y23*%
%MOIN*%
%SFA1B1*%

%IPPOS*%
%ADD10C,0.010000*%
%ADD30O,0.159842X0.059842*%
%ADD31R,0.159842X0.059842*%
%ADD34C,0.023622*%
%ADD38R,0.059055X0.059055*%
%ADD39C,0.059055*%
%ADD40R,0.059055X0.059055*%
%ADD41C,0.023622*%
%ADD42C,0.060000*%
%ADD43C,0.019685*%
%LNpcb_sherpa_mk_ii-1*%
%LPD*%
G54D10*
X0307Y0729D02*
X0338D01*
X02997Y07217D02*
X0307Y0729D01*
X0338D02*
X03495Y07405D01*
X02347Y07217D02*
X02997D01*
X03595Y07045D02*
Y07575D01*
X03275Y06725D02*
X03595Y07045D01*
X03065Y06725D02*
X03275D01*
X02195Y06975D02*
Y07445D01*
X02163Y07476D02*
X02195Y07445D01*
X02008Y07476D02*
X02163D01*
X02215Y07012D02*
Y0746D01*
X02175Y075D02*
X02215Y0746D01*
X0202Y075D02*
X02175D01*
X02205Y0764D02*
X02505D01*
X0284Y07305*
Y07265D02*
Y07305D01*
X031Y07635D02*
Y0768D01*
X03075Y07705D02*
X031Y0768D01*
X02185Y07705D02*
X03075D01*
X02095Y07795D02*
X02185Y07705D01*
X01895Y07795D02*
X02015Y07675D01*
X03071*
X01825Y0787D02*
X0185Y07895D01*
X01825Y0766D02*
Y0787D01*
Y0766D02*
X02008Y07476D01*
X01845Y07675D02*
X0202Y075D01*
X01845Y07675D02*
Y07825D01*
X0187Y0785*
X0195*
X01995Y07895*
X0185D02*
X01895D01*
X02215Y07012D02*
X02335Y06892D01*
X02195Y06975D02*
X0236Y0681D01*
X02265Y0727D02*
X02295D01*
X0224Y07245D02*
X02265Y0727D01*
X0236Y06775D02*
Y0681D01*
Y06775D02*
X0241Y06725D01*
Y0643D02*
Y06725D01*
X02335Y06892D02*
X02352D01*
X0243Y06815*
Y0657D02*
Y06815D01*
Y0657D02*
X02555Y06445D01*
X0213Y06335D02*
Y07395D01*
Y06335D02*
X0236Y06105D01*
Y06035D02*
Y06105D01*
Y06035D02*
X0241Y05985D01*
X02455Y0604D02*
X0251Y05985D01*
X02455Y0604D02*
Y06139D01*
X02322Y06272D02*
X02455Y06139D01*
X02322Y06272D02*
Y06802D01*
X02325Y06805*
X0229Y06205D02*
Y06515D01*
Y06205D02*
X0241Y06085D01*
X0261D02*
Y06155D01*
X0252Y06245D02*
X0261Y06155D01*
X0252Y06245D02*
Y0641D01*
X0256Y06035D02*
Y06155D01*
X0246Y06255D02*
X0256Y06155D01*
X0246Y06255D02*
Y06425D01*
X0251Y06085D02*
Y06155D01*
X0238Y06285D02*
X0251Y06155D01*
X0238Y06285D02*
Y06445D01*
X0256Y06035D02*
X0261Y05985D01*
X02485Y06445D02*
X0252Y0641D01*
X0269Y0673D02*
X03161Y07201D01*
X0269Y06145D02*
Y0673D01*
X0266Y06115D02*
X0269Y06145D01*
X0271Y06721D02*
X03168Y0718D01*
X0271Y06687D02*
Y06721D01*
X02707Y06684D02*
X0271Y06687D01*
X02707Y06665D02*
Y06684D01*
Y06665D02*
X0271Y06662D01*
Y06085D02*
Y06662D01*
X0266Y06035D02*
Y06115D01*
Y06035D02*
X0271Y05985D01*
X03168Y0718D02*
X03235D01*
X0327Y07215*
X03365*
X03161Y07201D02*
X03229D01*
X03277Y0725*
X03365*
X02295Y0727D02*
X02347Y07217D01*
X03495Y07405D02*
Y07575D01*
X02905Y06565D02*
X03065Y06725D01*
X0342Y0673D02*
X03495Y06805D01*
X0342Y06635D02*
Y0673D01*
X02875Y06565D02*
X02905D01*
X03695Y06945D02*
Y07575D01*
X03555Y06805D02*
X03695Y06945D01*
X03495Y06805D02*
X03555D01*
X03375Y0772D02*
X0352D01*
X033Y07645D02*
X03375Y0772D01*
X033Y07525D02*
Y07645D01*
X03445Y0794D02*
X0355D01*
X0307Y07565D02*
X03445Y0794D01*
X0307Y07395D02*
Y07565D01*
X0343Y07895D02*
X03495D01*
X0312Y07585D02*
X0343Y07895D01*
X0312Y0741D02*
Y07585D01*
X03416Y07851D02*
X03651D01*
X03145Y0758D02*
X03416Y07851D01*
X03145Y07435D02*
Y0758D01*
X0342Y07795D02*
X03495D01*
X03265Y0764D02*
X0342Y07795D01*
X03265Y07525D02*
Y0764D01*
X03428Y07835D02*
X03529D01*
X0319Y07597D02*
X03428Y07835D01*
X0355Y0794D02*
X03595Y07895D01*
X0312Y0741D02*
X0313Y074D01*
Y0735D02*
Y074D01*
X0319Y07495D02*
Y07597D01*
X03529Y07835D02*
X03577D01*
X03529Y07835D02*
X03529Y07835D01*
X03711Y07835D02*
X03712Y07835D01*
X03678Y07835D02*
X03711D01*
X03677Y07835D02*
X03678Y07835D01*
X03612Y07835D02*
X03677D01*
X03611Y07835D02*
X03612Y07835D01*
X03578Y07835D02*
X03611D01*
X03577Y07835D02*
X03578Y07835D01*
X03651Y07851D02*
X03695Y07895D01*
X0352Y0772D02*
X03595Y07795D01*
X0374Y07655D02*
Y0774D01*
X0371Y07625D02*
X0374Y07655D01*
X03667Y07625D02*
X0371D01*
X03661Y07618D02*
X03667Y07625D01*
X03458Y07618D02*
X03661D01*
X03445Y07605D02*
X03458Y07618D01*
X03445Y0739D02*
Y07605D01*
X0342Y07365D02*
X03445Y0739D01*
X03415Y07365D02*
X0342D01*
X0339Y0745D02*
X034Y0746D01*
X0339Y07415D02*
Y0745D01*
Y07415D02*
X0341Y07395D01*
X03654Y07634D02*
X03695Y07675D01*
X03429Y07634D02*
X03654D01*
X034Y07605D02*
X03429Y07634D01*
X034Y0746D02*
Y07605D01*
X0341Y07395D02*
X03415Y074D01*
X03492Y07675D02*
X03495D01*
X03695D02*
Y07795D01*
X03735Y07835D02*
X03795Y07895D01*
X03712Y07835D02*
X03735D01*
X0374Y0774D02*
X03795Y07795D01*
X0246Y06425D02*
X02462Y06422D01*
G54D30*
X0168Y0664D03*
G54D31*
X0168Y0644D03*
G54D34*
X0168Y0664D02*
X018D01*
X0167Y0644D02*
X0168D01*
X018*
G54D38*
X03495Y07575D03*
X0271Y06085D03*
X01895Y07795D03*
X02695D03*
X03495D03*
X03669Y06077D03*
G54D39*
X03495Y07675D03*
X03595Y07575D03*
Y07675D03*
X03695Y07575D03*
Y07675D03*
X0261Y06085D03*
X0251D03*
X0241D03*
X0231D03*
X0221D03*
X0271Y05985D03*
X0261D03*
X0251D03*
X0241D03*
X0231D03*
X0221D03*
X01995Y07795D03*
X02095D03*
X02195D03*
X02295D03*
X02395D03*
X01895Y07895D03*
X01995D03*
X02095D03*
X02195D03*
X02295D03*
X02395D03*
X02795Y07795D03*
X02895D03*
X02995D03*
X03095D03*
X03195D03*
X02695Y07895D03*
X02795D03*
X02895D03*
X02995D03*
X03095D03*
X03195D03*
X03595Y07795D03*
X03695D03*
X03795D03*
X03895D03*
X03995D03*
X03495Y07895D03*
X03595D03*
X03695D03*
X03795D03*
X03895D03*
X03995D03*
X03769Y06077D03*
X03869D03*
X042Y0732D03*
Y0722D03*
Y0712D03*
Y0702D03*
Y0692D03*
X043Y0742D03*
Y0732D03*
Y0722D03*
Y0712D03*
Y0702D03*
Y0692D03*
X042Y0652D03*
Y0642D03*
Y0632D03*
Y0622D03*
Y0612D03*
X043Y0662D03*
Y0652D03*
Y0642D03*
Y0632D03*
Y0622D03*
Y0612D03*
G54D40*
X042Y0742D03*
Y0662D03*
G54D41*
X03475Y07125D03*
X03545Y0716D03*
X02165Y07425D03*
X02155Y06505D03*
Y06625D03*
X0315Y07125D03*
X03285Y0704D03*
X03375Y0678D03*
X0326D03*
X03505Y06755D03*
X0252Y06805D03*
Y06845D03*
Y0717D03*
X0257Y06845D03*
X0252Y07055D03*
X0271Y06885D03*
Y0685D03*
X0265Y0661D03*
Y06555D03*
X02759Y0661D03*
X0276Y06555D03*
X0279Y06535D03*
X0276Y06507D03*
X0265D03*
X03505Y06705D03*
X03545Y06685D03*
X03685Y06785D03*
Y06845D03*
X03505D03*
X03455Y06615D03*
X0252Y06445D03*
X02555Y0641D03*
X02345Y06445D03*
Y06335D03*
X0229Y06615D03*
Y06735D03*
Y067D03*
Y06775D03*
Y06655D03*
X03925Y06835D03*
Y06795D03*
X03815Y06835D03*
Y06795D03*
X0326Y06865D03*
X0337Y0668D03*
X0326Y06675D03*
X03475Y0655D03*
X0351D03*
X03475Y0644D03*
X0351D03*
X02875Y066D03*
X03415Y07435D03*
X03785D03*
X03365Y0718D03*
Y07215D03*
X0348Y0724D03*
Y07205D03*
Y0717D03*
X0315Y0732D03*
X03095Y0737D03*
X0319Y07245D03*
X03095Y0726D03*
X02275Y0721D03*
Y07295D03*
X0243Y07485D03*
X0238Y07095D03*
X03785Y0731D03*
X0227Y07095D03*
X02545Y07485D03*
X02395D03*
X02275Y07245D03*
X02165Y0721D03*
X02165Y07295D03*
X02485Y064D03*
X02435D03*
X02395Y06805D03*
X0238Y06915D03*
X0296Y06515D03*
X0342Y06635D03*
X02805Y06425D03*
X02925D03*
X03425Y0704D03*
X0238Y06445D03*
X02555D03*
X0246Y06425D03*
X02485Y06445D03*
X02345Y06915D03*
X02325Y06805D03*
X0227Y07165D03*
Y0713D03*
X0245Y06955D03*
X02305D03*
X02597D03*
X0228Y07345D03*
X02165Y0733D03*
X0213Y07395D03*
X02165Y07365D03*
X03545Y0644D03*
X0326Y069D03*
X03415Y074D03*
X0229Y06515D03*
X0241Y0643D03*
X03365Y0725D03*
X0224Y07245D03*
X02875Y06565D03*
X03415Y07365D03*
X0313Y0735D03*
X0307Y07395D03*
X0358Y0644D03*
X03615D03*
X0365D03*
X0273Y06675D03*
X0284Y07265D03*
X02205Y0764D03*
X03375Y06865D03*
X03145Y07435D03*
X0337Y07495D03*
X03335D03*
X0337Y07605D03*
X03335D03*
X033Y07525D03*
X03265D03*
X0323Y07605D03*
X0319Y07495D03*
X0323D03*
X031Y07635D03*
X03071Y07675D03*
G54D42*
X018Y0644D03*
Y0664D03*
G54D43*
X02375Y07389D03*
X02418D03*
X02461D03*
X02504D03*
X02375Y07346D03*
X02418D03*
X02461D03*
X02504D03*
X02375Y07303D03*
X02418D03*
X02461D03*
X02504D03*
X02375Y0726D03*
X02418D03*
X02461D03*
X02504D03*
X03253Y07353D03*
Y07396D03*
X03296Y07353D03*
Y07396D03*
M02*